<svg width="24" height="24" viewBox="0 0 24 24" fill="none" xmlns="http://www.w3.org/2000/svg">
<path d="M1.88889 13.2014H9.47222C10.1674 13.2014 10.7361 12.6326 10.7361 11.9375V1.82639C10.7361 1.13125 10.1674 0.5625 9.47222 0.5625H1.88889C1.19375 0.5625 0.625 1.13125 0.625 1.82639V11.9375C0.625 12.6326 1.19375 13.2014 1.88889 13.2014ZM1.88889 23.3125H9.47222C10.1674 23.3125 10.7361 22.7437 10.7361 22.0486V16.9931C10.7361 16.2979 10.1674 15.7292 9.47222 15.7292H1.88889C1.19375 15.7292 0.625 16.2979 0.625 16.9931V22.0486C0.625 22.7437 1.19375 23.3125 1.88889 23.3125ZM14.5278 23.3125H22.1111C22.8062 23.3125 23.375 22.7437 23.375 22.0486V11.9375C23.375 11.2424 22.8062 10.6736 22.1111 10.6736H14.5278C13.8326 10.6736 13.2639 11.2424 13.2639 11.9375V22.0486C13.2639 22.7437 13.8326 23.3125 14.5278 23.3125ZM13.2639 1.82639V6.88194C13.2639 7.57708 13.8326 8.14583 14.5278 8.14583H22.1111C22.8062 8.14583 23.375 7.57708 23.375 6.88194V1.82639C23.375 1.13125 22.8062 0.5625 22.1111 0.5625H14.5278C13.8326 0.5625 13.2639 1.13125 13.2639 1.82639Z" fill="#6E63E5"/>
</svg>
