<svg width="28" height="25" viewBox="0 0 28 25" fill="none" xmlns="http://www.w3.org/2000/svg">
<path d="M22.1069 9.8552L23.228 11.0225L16.7953 11.0225C16.4236 11.0225 16.0672 11.1781 15.8044 11.4552C15.5415 11.7323 15.3939 12.1081 15.3939 12.5C15.3939 12.8919 15.5415 13.2677 15.8044 13.5448C16.0672 13.8219 16.4236 13.9775 16.7953 13.9775L23.228 13.9775L22.1069 15.1448C21.9755 15.2822 21.8712 15.4456 21.8001 15.6256C21.7289 15.8057 21.6923 15.9988 21.6923 16.1939C21.6923 16.3889 21.7289 16.582 21.8001 16.7621C21.8712 16.9421 21.9755 17.1056 22.1069 17.2429C22.2371 17.3814 22.3921 17.4913 22.5629 17.5663C22.7337 17.6413 22.9169 17.68 23.1019 17.68C23.2869 17.68 23.4701 17.6413 23.6409 17.5663C23.8116 17.4913 23.9666 17.3814 24.0969 17.2429L27.6006 13.5491C27.7282 13.4085 27.8282 13.2428 27.8949 13.0615C28.035 12.7017 28.035 12.2983 27.8949 11.9385C27.8282 11.7572 27.7282 11.5915 27.6006 11.4509L24.0969 7.7571C23.833 7.47887 23.4751 7.32256 23.1019 7.32256C22.7287 7.32256 22.3708 7.47887 22.1069 7.7571C21.843 8.03532 21.6947 8.41268 21.6947 8.80615C21.6947 9.19962 21.843 9.57698 22.1069 9.8552ZM20.2149 21.3652C20.3474 21.2255 20.4525 21.0597 20.5242 20.8772C20.5959 20.6946 20.6328 20.499 20.6328 20.3014C20.6328 20.1038 20.5959 19.9082 20.5242 19.7257C20.4525 19.5431 20.3474 19.3773 20.2149 19.2376C20.0824 19.0979 19.9251 18.9871 19.7519 18.9115C19.5788 18.8358 19.3932 18.7969 19.2058 18.7969C19.0184 18.7969 18.8329 18.8358 18.6597 18.9115C18.4866 18.9871 18.3293 19.0979 18.1968 19.2376C16.9327 20.5708 15.3221 21.4788 13.5685 21.8468C11.815 22.2148 9.99726 22.0262 8.34534 21.305C6.69341 20.5838 5.28145 19.3623 4.28804 17.795C3.29463 16.2277 2.7644 14.385 2.7644 12.5C2.7644 10.615 3.29463 8.77227 4.28804 7.20498C5.28145 5.63768 6.69341 4.41618 8.34534 3.69497C9.99726 2.97375 11.815 2.78523 13.5685 3.15324C15.3221 3.52124 16.9327 4.42925 18.1968 5.76241C18.3293 5.90212 18.4866 6.01294 18.6597 6.08854C18.8329 6.16415 19.0184 6.20307 19.2058 6.20307C19.3932 6.20307 19.5788 6.16415 19.7519 6.08854C19.9251 6.01294 20.0824 5.90212 20.2149 5.76241C20.3474 5.62271 20.4525 5.45686 20.5242 5.27433C20.5959 5.09179 20.6328 4.89616 20.6328 4.69859C20.6328 4.50101 20.5959 4.30538 20.5242 4.12285C20.4525 3.94031 20.3474 3.77446 20.2149 3.63476C18.5539 1.89409 16.4412 0.711003 14.1433 0.234746C11.8453 -0.241511 9.46505 0.0103935 7.30272 0.958682C5.1404 1.90697 3.29288 3.50916 1.99323 5.56315C0.693575 7.61714 1.46888e-06 10.0309 1.36096e-06 12.5C1.25303e-06 14.9691 0.693574 17.3829 1.99323 19.4368C3.29288 21.4908 5.1404 23.093 7.30272 24.0413C9.46505 24.9896 11.8453 25.2415 14.1433 24.7653C16.4412 24.289 18.5539 23.1059 20.2149 21.3652Z" fill="#FF6969"/>
</svg>
