<svg width="32" height="31" viewBox="0 0 32 31" fill="none" xmlns="http://www.w3.org/2000/svg">
<path d="M16 29.4375C23.732 29.4375 30 23.1695 30 15.4375C30 7.70551 23.732 1.4375 16 1.4375C8.26801 1.4375 2 7.70551 2 15.4375C2 23.1695 8.26801 29.4375 16 29.4375Z" stroke="#6E63E5" stroke-width="2.33333" stroke-linecap="round" stroke-linejoin="round"/>
<path d="M14.922 11.9204L20.6667 10.7708L19.5171 16.5155C19.3968 17.1176 19.101 17.6706 18.6669 18.105C18.2329 18.5393 17.68 18.8354 17.078 18.9562L11.3333 20.1042L12.4829 14.3595C12.6035 13.7577 12.8994 13.205 13.3335 12.7709C13.7675 12.3369 14.3202 12.041 14.922 11.9204Z" fill="#6E63E5" stroke="#6E63E5" stroke-width="2.33333" stroke-linecap="round" stroke-linejoin="round"/>
</svg>
