<svg width="22" height="21" viewBox="0 0 22 21" fill="none" xmlns="http://www.w3.org/2000/svg">
<circle cx="10.8521" cy="10.5" r="9.54158" fill="white" stroke="#DDDDDD" stroke-width="1.31608"/>
<path d="M9.98157 7.07756C10.105 6.9542 10.2723 6.8849 10.4468 6.8849C10.6213 6.8849 10.7886 6.9542 10.912 7.07756L13.8732 10.0387C13.9966 10.1621 14.0659 10.3295 14.0659 10.504C14.0659 10.6785 13.9966 10.8458 13.8732 10.9692L10.912 13.9304C10.7879 14.0503 10.6217 14.1166 10.4492 14.1151C10.2766 14.1136 10.1116 14.0444 9.98959 13.9224C9.86758 13.8004 9.79838 13.6353 9.79688 13.4628C9.79538 13.2902 9.86171 13.124 9.98157 12.9999L11.7629 11.162H8.29641C8.12188 11.162 7.95451 11.0927 7.8311 10.9693C7.7077 10.8459 7.63837 10.6785 7.63837 10.504C7.63837 10.3295 7.7077 10.1621 7.8311 10.0387C7.95451 9.91526 8.12188 9.84593 8.29641 9.84593H11.7629L9.98157 8.00803C9.85821 7.88463 9.78891 7.71728 9.78891 7.54279C9.78891 7.36831 9.85821 7.20096 9.98157 7.07756Z" fill="#1A1A1A"/>
</svg>
