<svg width="28" height="30" viewBox="0 0 28 30" fill="none" xmlns="http://www.w3.org/2000/svg">
<path fill-rule="evenodd" clip-rule="evenodd" d="M16.6217 0.228C16.0764 -6.70552e-08 15.3838 0 14.0001 0C12.6163 0 11.9252 -6.70552e-08 11.3785 0.228C10.6526 0.531316 10.0749 1.11565 9.7722 1.8525C9.63367 2.187 9.58062 2.5785 9.55852 3.147C9.54869 3.55891 9.43581 3.96145 9.23055 4.31658C9.0253 4.67171 8.73444 4.96767 8.3855 5.1765C8.02997 5.37766 7.63032 5.48422 7.22357 5.48632C6.81682 5.48841 6.41612 5.38598 6.05861 5.1885C5.56052 4.9215 5.19948 4.7745 4.84286 4.7265C4.06264 4.62223 3.27353 4.8357 2.64713 5.3205C2.17851 5.6835 1.8322 6.2895 1.14107 7.5C0.448453 8.7105 0.10362 9.315 0.0255169 9.9075C-0.0776382 10.6965 0.134567 11.4945 0.614975 12.126C0.833074 12.414 1.14107 12.6555 1.61705 12.9585C2.31998 13.404 2.77092 14.163 2.77092 15C2.77092 15.837 2.31998 16.596 1.61853 17.04C1.14107 17.3445 0.833074 17.586 0.613501 17.874C0.376366 18.1859 0.202309 18.5426 0.101386 18.9234C0.000464038 19.3041 -0.0253227 19.7015 0.0255169 20.0925C0.10362 20.6835 0.448453 21.2895 1.14107 22.5C1.83368 23.7105 2.17851 24.315 2.64713 24.6795C3.27195 25.164 4.06183 25.377 4.84286 25.2735C5.19948 25.2255 5.56052 25.0785 6.05861 24.8115C6.41631 24.6138 6.81727 24.5112 7.22431 24.5133C7.63134 24.5154 8.03127 24.6221 8.38697 24.8235C9.10316 25.2435 9.52757 26.016 9.55852 26.853C9.58062 27.423 9.63367 27.813 9.7722 28.1475C10.0728 28.8825 10.6505 29.4675 11.3785 29.772C11.9237 30 12.6163 30 14.0001 30C15.3838 30 16.0764 30 16.6217 29.772C17.3475 29.4687 17.9253 28.8844 18.228 28.1475C18.3665 27.813 18.4195 27.423 18.4416 26.853C18.4711 26.016 18.897 25.242 19.6147 24.8235C19.9702 24.6223 20.3698 24.5158 20.7766 24.5137C21.1833 24.5116 21.584 24.614 21.9415 24.8115C22.4396 25.0785 22.8007 25.2255 23.1573 25.2735C23.9383 25.3785 24.7282 25.164 25.353 24.6795C25.8217 24.3165 26.168 23.7105 26.8591 22.5C27.5517 21.2895 27.8965 20.685 27.9746 20.0925C28.0253 19.7014 27.9993 19.304 27.8981 18.9232C27.7969 18.5424 27.6226 18.1858 27.3852 17.874C27.1671 17.586 26.8591 17.3445 26.3831 17.0415C25.6802 16.596 25.2292 15.837 25.2292 15C25.2292 14.163 25.6802 13.404 26.3816 12.96C26.8591 12.6555 27.1671 12.414 27.3867 12.126C27.6238 11.8141 27.7979 11.4574 27.8988 11.0766C27.9997 10.6959 28.0255 10.2985 27.9746 9.9075C27.8965 9.3165 27.5517 8.7105 26.8591 7.5C26.1665 6.2895 25.8217 5.685 25.353 5.3205C24.7266 4.8357 23.9375 4.62223 23.1573 4.7265C22.8007 4.7745 22.4396 4.9215 21.9415 5.1885C21.5839 5.38624 21.1829 5.48883 20.7759 5.48673C20.3688 5.48463 19.9689 5.37792 19.6132 5.1765C19.2645 4.96749 18.974 4.67144 18.769 4.31633C18.564 3.96121 18.4513 3.55876 18.4416 3.147C18.4195 2.577 18.3665 2.187 18.228 1.8525C18.0782 1.4876 17.8592 1.15632 17.5836 0.877587C17.308 0.598849 16.9811 0.378117 16.6217 0.228ZM14.0001 19.5C16.4611 19.5 18.4549 17.4855 18.4549 15C18.4549 12.5145 16.4596 10.5 14.0001 10.5C11.5391 10.5 9.54526 12.5145 9.54526 15C9.54526 17.4855 11.5406 19.5 14.0001 19.5Z" fill="#404040"/>
</svg>
